<svg xmlns="http://www.w3.org/2000/svg" viewBox="0 0 64 64">
  <rect width="64" height="64" rx="12" fill="#0f172a"/>
  <g transform="translate(12, 8)">
    <path d="M20 4C10.059 4 2 12.059 2 22v18c0 1.5 1.2 2 2 1.2l4-3.2 4 3.2c.8.6 1.6.6 2.4 0L18 38l3.6 3.2c.8.6 1.6.6 2.4 0L28 38l4 3.2c.8.8 2 .3 2-1.2V22C34 12.059 25.941 4 20 4z" fill="#22d3ee" opacity="0.9"/>
    <circle cx="13" cy="20" r="3" fill="#0f172a"/>
    <circle cx="27" cy="20" r="3" fill="#0f172a"/>
    <circle cx="14" cy="18.5" r="1.2" fill="white"/>
    <circle cx="28" cy="18.5" r="1.2" fill="white"/>
  </g>
</svg>
